{"title":"Critters (1986) BRrip 720p x264 Dual Audio [Eng-Hindi] XdesiArse","uid":10940912,"size":882360338,"categoryP":"video","categoryS":"hd___movies","magnet":"?xt=urn:btih:5a8c9db16db9a14ff773d3b41f50171036593ca1&amp;dn=Critters+%281986%29+BRrip+720p+x264+Dual+Audio+%5BEng-Hindi%5D+XdesiArse&amp;tr=udp%3A%2F%2Ftracker.openbittorrent.com%3A80&amp;tr=udp%3A%2F%2Fopen.demonii.com%3A1337&amp;tr=udp%3A%2F%2Ftracker.coppersurfer.tk%3A6969&amp;tr=udp%3A%2F%2Fexodus.desync.com%3A6969","seeders":8,"leechers":4,"uploader":"Xdesiars","files":5,"time":1409512246,"description":"Format                                   : Matroska\nFormat version                           : Version 2\nFile size                                : 826 MiB\nDuration                                 : 1h 26mn\nOverall bit rate                         : 1 335 Kbps\nMovie name                               : Critters (1986) by XdesiArsenal [ExD-XMR]\nEncoded date                             : UTC 2014-08-31 14:44:01\nWriting application                      : mkvmerge v5.0.1 ('Es ist Sommer') built on Nov 23 2011 20:48:57\nWriting library                          : libebml v1.2.2 + libmatroska v1.3.0\n\nVideo\nID                                       : 1\nFormat                                   : AVC\nFormat/Info                              : Advanced Video Codec\nFormat profile                           : &lt;a class=&quot;__cf_email__&quot; href=&quot;/cdn-cgi/l/email-protection&quot; data-cfemail=&quot;226f434b4c626e110c13&quot;&gt;[email&amp;#160;protected]&lt;/a&gt;&lt;script cf-hash='f9e31' type=&quot;text/javascript&quot;&gt;\n/* &lt;![CDATA[ */!function(){try{var t=&quot;currentScript&quot;in document?document.currentScript:function(){for(var t=document.getElementsByTagName(&quot;script&quot;),e=t.length;e--;)if(t[e].getAttribute(&quot;cf-hash&quot;))return t[e]}();if(t&amp;&amp;t.previousSibling){var e,r,n,i,c=t.previousSibling,a=c.getAttribute(&quot;data-cfemail&quot;);if(a){for(e=&quot;&quot;,r=parseInt(a.substr(0,2),16),n=2;a.length-n;n+=2)i=parseInt(a.substr(n,2),16)^r,e+=String.fromCharCode(i);e=document.createTextNode(e),c.parentNode.replaceChild(e,c)}}}catch(u){}}();/* ]]&gt; */&lt;/script&gt;\nFormat settings, CABAC                   : Yes\nFormat settings, ReFrames                : 4 frames\nMuxing mode                              : Header stripping\nCodec ID                                 : V_MPEG4/ISO/AVC\nDuration                                 : 1h 26mn\nBit rate                                 : 925 Kbps\nWidth                                    : 1 280 pixels\nHeight                                   : 544 pixels\nDisplay aspect ratio                     : 16:9\nFrame rate mode                          : Constant\nFrame rate                               : 23.976 fps\nColor space                              : YUV\nChroma subsampling                       : 4:2:0\nBit depth                                : 8 bits\nScan type                                : Progressive\nBits/(Pixel*Frame)                       : 0.055\nStream size                              : 572 MiB (69%)\nTitle                                    : Critters (1986) by XdesiArsenal [ExD-XMR]\nWriting library                          : x264 core 112\nEncoding settings                        : cabac=1 / ref=2 / deblock=1:0:0 / analyse=0x1:0x111 / me=hex / subme=6 / psy=1 / psy_rd=1.00:0.00 / mixed_ref=0 / me_range=16 / chroma_me=1 / trellis=0 / 8x8dct=0 / cqm=0 / deadzone=21,11 / fast_pskip=1 / chroma_qp_offset=-2 / threads=3 / sliced_threads=0 / nr=0 / decimate=1 / interlaced=0 / constrained_intra=0 / bframes=2 / b_pyramid=2 / b_adapt=1 / b_bias=0 / direct=1 / weightb=0 / open_gop=0 / weightp=2 / keyint=240 / keyint_min=23 / scenecut=40 / intra_refresh=0 / rc_lookahead=40 / rc=crf / mbtree=1 / crf=23.3 / qcomp=0.60 / qpmin=3 / qpmax=51 / qpstep=4 / ip_ratio=1.40 / aq=1:1.00\nLanguage                                 : English\nDefault                                  : Yes\nForced                                   : No\nColor primaries                          : BT.709\nTransfer characteristics                 : BT.709\nMatrix coefficients                      : BT.709\n\nAudio #1\nID                                       : 2\nFormat                                   : AC-3\nFormat/Info                              : Audio Coding 3\nMode extension                           : CM (complete main)\nFormat settings, Endianness              : Big\nMuxing mode                              : Header stripping\nCodec ID                                 : A_AC3\nDuration                                 : 1h 26mn\nBit rate mode                            : Constant\nBit rate                                 : 256 Kbps\nChannel(s)                               : 2 channels\nChannel positions                        : Front: L R\nSampling rate                            : 48.0 KHz\nBit depth                                : 16 bits\nCompression mode                         : Lossy\nStream size                              : 158 MiB (19%)\nTitle                                    : XdesiArsenal\nLanguage                                 : English\nDefault                                  : Yes\nForced                                   : No\n\nAudio #2\nID                                       : 3\nFormat                                   : MPEG Audio\nFormat version                           : Version 1\nFormat profile                           : Layer 3\nMode                                     : Joint stereo\nMode extension                           : MS Stereo\nMuxing mode                              : Header stripping\nCodec ID                                 : A_MPEG/L3\nCodec ID/Hint                            : MP3\nDuration                                 : 1h 26mn\nBit rate mode                            : Constant\nBit rate                                 : 128 Kbps\nChannel(s)                               : 2 channels\nSampling rate                            : 48.0 KHz\nCompression mode                         : Lossy\nDelay relative to video                  : 2s 600ms\nStream size                              : 79.1 MiB (10%)\nTitle                                    : XdesiArsenal\nWriting library                          : LAME3.98 \nEncoding settings                        : -m j -V 4 -q 2 -lowpass 17 -b 128\nLanguage                                 : Hindi\nDefault                                  : No\nForced                                   : No\n\nMenu\n00:00:00.000                             : en:Chapter 1\n00:05:10.060                             : en:Chapter 2\n00:08:23.003                             : en:Chapter 3\n00:10:59.076                             : en:Chapter 4\n00:13:54.001                             : en:Chapter 5\n00:18:13.010                             : en:Chapter 6\n00:23:24.071                             : en:Chapter 7\n00:27:06.043                             : en:Chapter 8\n00:32:46.049                             : en:Chapter 9\n00:39:28.035                             : en:Chapter 10\n00:42:50.028                             : en:Chapter 11\n00:44:59.032                             : en:Chapter 12\n00:49:43.025                             : en:Chapter 13\n00:54:42.032                             : en:Chapter 14\n00:57:39.001                             : en:Chapter 15\n00:59:29.069                             : en:Chapter 16\n01:04:10.017                             : en:Chapter 17\n01:09:38.053                             : en:Chapter 18\n01:18:55.027                             : en:Chapter 19\n01:21:40.025                             : en:Chapter 20\n","torrent":{"xt":"urn:btih:5a8c9db16db9a14ff773d3b41f50171036593ca1","amp;dn":"Critters+%281986%29+BRrip+720p+x264+Dual+Audio+%5BEng-Hindi%5D+XdesiArse","amp;tr":["udp%3A%2F%2Ftracker.openbittorrent.com%3A80","udp%3A%2F%2Fopen.demonii.com%3A1337","udp%3A%2F%2Ftracker.coppersurfer.tk%3A6969","udp%3A%2F%2Fexodus.desync.com%3A6969"],"infoHash":"5a8c9db16db9a14ff773d3b41f50171036593ca1","infoHashBuffer":{"type":"Buffer","data":[90,140,157,177,109,185,161,79,247,115,211,180,31,80,23,16,54,89,60,161]},"announce":[],"urlList":[]}}